<?xml version="1.0" standalone="no"?>
<!DOCTYPE svg PUBLIC "-//W3C//DTD SVG 20010904//EN"
 "http://www.w3.org/TR/2001/REC-SVG-20010904/DTD/svg10.dtd">
<svg version="1.0" xmlns="http://www.w3.org/2000/svg"
 width="512.000000pt" height="512.000000pt" viewBox="0 0 512.000000 512.000000"
 preserveAspectRatio="xMidYMid meet">
<metadata>
Created by potrace 1.16, written by Peter Selinger 2001-2019
</metadata>
<g transform="translate(0.000000,512.000000) scale(0.100000,-0.100000)"
fill="#000000" stroke="none">
<path d="M2525 5110 c-27 -11 -2385 -2372 -2385 -2388 0 -9 75 -12 333 -12
l332 0 -3 -1315 -3 -1315 640 0 641 0 0 749 0 750 24 28 24 28 432 0 432 0 24
-28 24 -28 0 -750 0 -749 640 0 640 0 0 1315 0 1315 330 0 c341 0 349 1 317
39 -52 62 -2338 2345 -2359 2357 -30 16 -53 17 -83 4z"/>
</g>
</svg>
